<svg class="inline-block" width="156" height="30" fill="none" xmlns="http://www.w3.org/2000/svg"><path d="M14.583.5v4.424C8.988 4.934 4.455 9.442 4.455 15c0 5.565 4.544 10.076 10.149 10.076 5.605 0 10.148-4.511 10.148-10.076a9.98 9.98 0 0 0-1.372-5.063l3.859-2.212A14.355 14.355 0 0 1 29.208 15c0 8.008-6.539 14.5-14.604 14.5C6.538 29.5 0 23.008 0 15 0 6.999 6.527.511 14.583.5Z" fill="#FFA72B"></path><path d="M23.377 10.006a10.143 10.143 0 0 0-3.726-3.7 10.235 10.235 0 0 0-5.09-1.354V15.06l8.816-5.053Z" fill="#FFA72B"></path><path d="M38.355 4.988h8.297c1.373 0 2.575.257 3.605.772 1.03.514 1.822 1.248 2.375 2.201.553.934.83 2.03.83 3.289 0 1.258-.277 2.364-.83 3.317-.553.934-1.345 1.658-2.375 2.173-1.03.515-2.232.772-3.605.772h-3.777v7.492h-4.52V4.988Zm7.84 8.664c.858 0 1.525-.21 2.002-.63.496-.438.744-1.029.744-1.772 0-.744-.248-1.325-.744-1.745-.477-.438-1.144-.657-2.003-.657h-3.319v4.804h3.32Zm12.044 3.46h4.406l-2.204-6.205-2.203 6.205Zm.057-12.124h4.263l7.581 20.016h-4.663l-1.46-4.118h-7.152l-1.459 4.118h-4.692l7.582-20.016Zm13.034 0h7.983c1.297 0 2.441.257 3.433.772.992.495 1.755 1.2 2.289 2.116.534.915.8 1.982.8 3.202a6.019 6.019 0 0 1-.771 3.003 5.577 5.577 0 0 1-2.118 2.144l5.122 8.779h-5.293l-4.35-7.835h-2.517v7.835h-4.52L71.33 4.988Zm7.21 8.32c.878 0 1.555-.19 2.032-.571.495-.4.743-.954.743-1.659 0-.705-.248-1.248-.743-1.63-.477-.4-1.154-.6-2.032-.6h-2.632v4.46h2.632Zm16.99 11.924a8.373 8.373 0 0 1-3.691-.829c-1.145-.553-2.08-1.315-2.804-2.287a6.367 6.367 0 0 1-1.259-3.26l3.948-1.173c.134 1.106.572 2.002 1.316 2.688.763.687 1.65 1.03 2.661 1.03.897 0 1.612-.19 2.146-.572.553-.4.83-.915.83-1.544 0-.496-.172-.906-.515-1.23-.325-.324-.744-.581-1.26-.772a25.312 25.312 0 0 0-2.088-.715c-1.335-.4-2.432-.79-3.29-1.172-.858-.4-1.593-1-2.203-1.802-.61-.8-.915-1.868-.915-3.202 0-1.068.314-2.03.944-2.888.63-.858 1.478-1.525 2.546-2.002 1.087-.495 2.28-.743 3.576-.743 1.278 0 2.451.219 3.52.657 1.087.42 1.993 1.02 2.717 1.802a5.589 5.589 0 0 1 1.431 2.66l-4.034 1.686c-.21-.915-.64-1.64-1.288-2.173-.63-.534-1.411-.8-2.346-.8-.782 0-1.402.161-1.86.486-.457.305-.686.733-.686 1.286s.267.963.801 1.23 1.392.543 2.575.83c1.411.342 2.575.714 3.49 1.114.935.4 1.736 1.058 2.404 1.973.686.896 1.03 2.116 1.03 3.66 0 1.201-.325 2.26-.973 3.174-.629.915-1.526 1.63-2.69 2.145-1.163.496-2.508.743-4.034.743Zm9.777-20.244h8.297c1.373 0 2.575.257 3.605.772 1.03.514 1.822 1.248 2.375 2.201.553.934.829 2.03.829 3.289 0 1.258-.276 2.364-.829 3.317-.553.934-1.345 1.658-2.375 2.173-1.03.515-2.232.772-3.605.772h-3.776v7.492h-4.521V4.988Zm7.839 8.664c.859 0 1.526-.21 2.003-.63.496-.438.744-1.029.744-1.772 0-.744-.248-1.325-.744-1.745-.477-.438-1.144-.657-2.003-.657h-3.318v4.804h3.318Zm8.995-8.664h13.761v3.86h-9.241v3.66h7.325v3.889h-7.325v4.718h9.556v3.889h-14.076V4.988Zm24.789 20.244c-1.85 0-3.538-.39-5.064-1.172-1.526-.782-2.746-1.944-3.662-3.488-.896-1.545-1.344-3.403-1.344-5.576 0-2.174.457-4.032 1.373-5.576.915-1.544 2.136-2.707 3.662-3.489 1.526-.781 3.204-1.172 5.035-1.172 1.66 0 3.138.286 4.435.858 1.297.552 2.346 1.344 3.147 2.373.801 1.03 1.297 2.23 1.488 3.603l-4.492.944c-.229-1.202-.763-2.155-1.602-2.86-.839-.705-1.841-1.058-3.004-1.058-1.03 0-1.965.248-2.804.743-.82.496-1.478 1.22-1.974 2.174-.477.953-.715 2.106-.715 3.46 0 1.353.238 2.506.715 3.46.477.953 1.135 1.677 1.974 2.173.839.476 1.774.714 2.804.714 1.163 0 2.146-.305 2.947-.915.801-.629 1.316-1.486 1.545-2.573l4.549 1.03c-.477 1.982-1.507 3.536-3.09 4.66-1.583 1.125-3.557 1.687-5.923 1.687Z" fill="#fff"></path></svg>